<?xml version="1.0" standalone="no"?>
<!DOCTYPE svg PUBLIC "-//W3C//DTD SVG 20010904//EN"
 "http://www.w3.org/TR/2001/REC-SVG-20010904/DTD/svg10.dtd">
<svg version="1.0" xmlns="http://www.w3.org/2000/svg"
 width="300.000000pt" height="300.000000pt" viewBox="0 0 300.000000 300.000000"
 preserveAspectRatio="xMidYMid meet">
<metadata>
Created by potrace 1.10, written by Peter Selinger 2001-2011
</metadata>
<g transform="translate(0.000000,300.000000) scale(0.100000,-0.100000)"
fill="#000000" stroke="none">
<path d="M65 2949 c-29 -27 -47 -53 -51 -74 -11 -59 2 -62 35 -8 21 34 50 63
82 82 27 17 49 33 49 36 0 3 -16 5 -35 5 -28 0 -45 -9 -80 -41z"/>
<path d="M2820 2985 c0 -3 22 -19 49 -36 32 -19 61 -48 82 -82 18 -29 34 -46
37 -39 19 57 -67 162 -133 162 -19 0 -35 -2 -35 -5z"/>
<path d="M2667 2939 c-9 -6 -35 -45 -56 -87 -22 -42 -58 -99 -80 -126 -23 -26
-41 -53 -41 -58 0 -5 29 -40 64 -76 35 -37 73 -85 84 -107 42 -85 90 -95 119
-27 42 100 54 122 80 153 56 67 56 65 40 96 -8 15 -29 38 -45 50 -17 13 -45
52 -63 90 -49 102 -63 115 -102 92z m37 -31 c23 -79 45 -119 97 -171 l58 -57
-24 -16 c-36 -24 -84 -102 -102 -166 -15 -55 -43 -80 -43 -40 0 45 -90 160
-154 197 -15 9 -12 16 31 60 31 32 61 79 83 128 34 75 47 90 54 65z"/>
<path d="M1414 2616 c-34 -15 -50 -43 -84 -151 -32 -100 -142 -326 -194 -398
-128 -180 -325 -315 -612 -422 -133 -49 -149 -66 -149 -155 0 -61 3 -72 28
-97 17 -19 54 -38 99 -52 320 -102 551 -260 684 -467 50 -78 127 -237 169
-349 25 -66 47 -110 67 -129 28 -26 35 -28 94 -24 86 5 103 23 149 156 51 151
143 335 216 431 130 174 331 305 624 408 98 34 115 56 115 147 0 66 -2 74 -27
98 -16 14 -59 36 -98 48 -104 33 -266 104 -345 150 -241 141 -374 317 -515
683 -45 117 -65 137 -139 137 -28 -1 -65 -7 -82 -14z m186 -139 c76 -216 175
-390 294 -514 143 -151 332 -259 618 -352 l67 -22 6 -53 c12 -95 13 -94 -108
-136 -372 -131 -601 -318 -747 -610 -37 -73 -113 -266 -129 -327 -11 -41 -12
-42 -64 -48 -79 -10 -99 -5 -110 30 -46 143 -151 368 -219 468 -139 204 -363
357 -680 463 -103 34 -108 37 -113 67 -4 18 -5 52 -3 76 l3 44 65 22 c36 12
108 41 160 63 388 166 570 367 726 799 29 83 53 134 63 137 9 2 42 3 75 3 l58
-2 38 -108z"/>
<path d="M1130 1735 l0 -125 125 0 125 0 0 -60 0 -60 -62 0 -63 0 2 -181 2
-181 61 -1 60 -2 0 63 0 62 120 0 120 0 0 -62 0 -63 60 2 61 1 2 181 2 181
-62 0 -63 0 0 60 0 60 125 0 125 0 0 125 0 125 -125 0 -125 0 0 -125 0 -125
-120 0 -120 0 0 125 0 125 -125 0 -125 0 0 -125z m204 59 c12 -32 6 -112 -10
-128 -10 -10 -33 -16 -64 -16 -78 0 -80 2 -80 86 l0 74 74 0 c58 0 75 -3 80
-16z m486 -58 c0 -58 -3 -75 -16 -80 -28 -11 -120 -6 -132 6 -12 12 -17 104
-6 132 5 13 22 16 80 16 l74 0 0 -74z m-239 -209 c8 -48 28 -68 76 -76 l38 -6
3 -129 c2 -83 -1 -133 -8 -140 -14 -14 -30 10 -30 46 0 17 -10 34 -26 47 -23
18 -41 21 -134 21 -93 0 -111 -3 -134 -21 -17 -13 -26 -30 -26 -49 0 -32 -26
-61 -35 -38 -3 8 -4 70 -3 138 l3 125 38 6 c50 8 67 27 74 78 l6 42 76 -3 76
-3 6 -38z"/>
<path d="M2242 2484 c-12 -8 -35 -43 -51 -77 -15 -34 -42 -84 -59 -111 -18
-28 -32 -54 -32 -59 0 -4 22 -32 49 -60 26 -29 64 -77 83 -107 49 -77 62 -86
93 -66 17 11 30 37 44 83 11 38 37 94 56 125 42 66 40 75 -28 131 -24 19 -54
57 -68 83 -32 62 -57 79 -87 58z m42 -50 c12 -46 65 -113 107 -134 l39 -21
-29 -37 c-37 -45 -67 -113 -76 -169 -4 -24 -11 -45 -16 -48 -4 -3 -20 18 -35
47 -36 72 -70 114 -110 138 l-33 21 34 48 c31 42 71 121 89 174 8 24 22 14 30
-19z"/>
<path d="M2717 2158 c-29 -41 -117 -239 -117 -264 1 -22 162 -194 182 -194 20
0 52 37 78 90 12 25 38 70 57 102 40 64 39 67 -27 143 -22 26 -47 61 -56 78
-23 45 -54 77 -75 77 -10 0 -29 -15 -42 -32z m82 -62 c19 -39 50 -81 76 -104
l45 -39 -31 -39 c-18 -22 -48 -73 -67 -114 l-35 -75 -21 30 c-27 39 -96 109
-119 122 -18 9 -17 14 15 79 19 38 47 99 63 137 15 37 31 67 35 67 4 0 22 -29
39 -64z"/>
<path d="M10 155 c0 -63 77 -145 135 -145 19 0 35 2 35 4 0 2 -22 18 -50 36
-30 19 -61 51 -80 81 -16 27 -32 49 -35 49 -3 0 -5 -11 -5 -25z"/>
<path d="M2948 130 c-22 -32 -56 -67 -84 -84 -50 -31 -46 -42 11 -32 58 11
124 100 113 153 -2 13 -13 4 -40 -37z"/>
</g>
</svg>
