<svg version="1.1" id="Layer_1" xmlns="http://www.w3.org/2000/svg" xmlns:xlink="http://www.w3.org/1999/xlink" x="0px" y="0px"
	 width="100%" viewBox="0 0 500 500" enable-background="new 0 0 500 500" xml:space="preserve">
<path fill="#000000" opacity="1.000000" stroke="none" 
	d="
M278.000000,501.000000 
	C185.333359,501.000000 93.166710,501.000000 1.000049,501.000000 
	C1.000033,334.333405 1.000033,167.666794 1.000016,1.000139 
	C167.666565,1.000093 334.333130,1.000093 500.999756,1.000046 
	C500.999847,167.666519 500.999847,334.333038 500.999939,500.999786 
	C426.833344,501.000000 352.666656,501.000000 278.000000,501.000000 
M229.700043,401.863770 
	C232.847870,410.433197 236.089951,418.969849 239.090439,427.590576 
	C240.089294,430.460327 241.509811,432.015656 244.725372,431.957092 
	C251.664276,431.830719 258.607056,431.918243 264.436127,431.918243 
	C270.653717,415.323456 276.038239,400.169281 281.980499,385.237030 
	C300.704468,338.185974 332.358765,303.078949 378.881073,282.251495 
	C394.614960,275.207672 410.792145,269.132263 426.899017,262.959473 
	C430.617584,261.534363 432.232544,259.751648 431.966034,255.829330 
	C431.605438,250.521408 431.416595,245.193390 431.404541,239.873444 
	C431.397614,236.809341 429.846985,235.832214 427.175537,234.902374 
	C413.232056,230.049164 399.209625,225.354568 385.530487,219.823730 
	C352.549438,206.488571 323.836609,187.228012 302.671906,157.986542 
	C286.743103,135.979095 276.108063,111.329613 266.580536,86.078484 
	C264.521362,80.620972 265.085052,72.539261 259.014648,70.478477 
	C253.370438,68.562386 246.513855,70.259666 240.190735,70.283745 
	C237.016998,70.295830 235.847260,71.954010 234.865158,74.876213 
	C230.743561,87.139847 226.465393,99.359894 221.871246,111.454094 
	C202.937775,161.296997 170.335831,198.690155 121.145424,220.510056 
	C105.685753,227.367676 89.788872,233.253082 73.996742,239.335907 
	C71.025352,240.480438 69.767975,241.838821 69.921402,245.020706 
	C70.169861,250.173523 70.121956,255.343323 70.099937,260.505554 
	C70.084610,264.099487 71.564209,265.929840 75.200539,267.104797 
	C86.727119,270.829163 98.234200,274.693695 109.493500,279.149231 
	C134.211319,288.930664 157.456345,301.281464 177.223007,319.473602 
	C201.828537,342.119202 217.070114,370.692139 229.700043,401.863770 
M443.931122,25.326576 
	C438.650024,37.244511 432.481323,48.531796 421.575134,55.639343 
	C428.068604,61.606956 434.805084,66.432495 439.715271,72.690887 
	C444.719055,79.068604 447.926605,86.855637 452.451447,94.978539 
	C455.373596,87.158447 457.311279,79.098267 461.263641,72.190849 
	C465.352997,65.043991 471.397797,59.016006 476.674164,52.389408 
	C462.093872,44.072849 454.693573,30.560692 450.962463,14.514969 
	C450.431915,14.379867 449.901367,14.244763 449.370789,14.109661 
	C447.629974,17.606325 445.889160,21.102989 443.931122,25.326576 
M441.359863,187.180008 
	C450.571777,194.118393 458.821594,201.959106 464.124634,212.351883 
	C465.157562,211.928558 465.842255,211.872375 466.020844,211.542343 
	C472.603943,199.376419 479.140106,187.185120 486.003906,174.398941 
	C475.324493,166.538300 467.272430,154.998169 461.885590,139.831131 
	C459.879333,142.970627 458.394043,144.819366 457.414612,146.905609 
	C451.574402,159.345459 445.828308,171.829834 440.152954,184.345673 
	C439.858398,184.995178 440.502228,186.070190 441.359863,187.180008 
M377.255981,91.004494 
	C376.524109,92.644585 375.853638,94.315437 375.050049,95.919601 
	C370.976501,104.051430 366.999023,112.235985 362.702637,120.249107 
	C361.166779,123.113625 358.830292,125.548866 356.844238,128.200089 
	C357.582458,129.030609 357.929932,129.662933 358.464355,129.987335 
	C370.082306,137.039703 376.996094,147.825684 382.435120,159.849594 
	C383.006744,161.113297 384.486908,161.966049 385.545532,163.009460 
	C386.364746,161.522385 387.734955,160.099121 387.915802,158.538101 
	C389.335175,146.285706 393.965637,135.494537 401.914368,126.074196 
	C403.224945,124.520935 404.194672,122.680046 405.396332,120.859375 
	C392.317841,115.291351 384.471405,106.037178 380.736969,93.104172 
	C380.447449,92.101425 378.877869,91.468300 377.255981,91.004494 
z"/>
<path fill="#FEFEFE" opacity="1.000000" stroke="none" 
	d="
M229.506744,401.529846 
	C217.070114,370.692139 201.828537,342.119202 177.223007,319.473602 
	C157.456345,301.281464 134.211319,288.930664 109.493500,279.149231 
	C98.234200,274.693695 86.727119,270.829163 75.200539,267.104797 
	C71.564209,265.929840 70.084610,264.099487 70.099937,260.505554 
	C70.121956,255.343323 70.169861,250.173523 69.921402,245.020706 
	C69.767975,241.838821 71.025352,240.480438 73.996742,239.335907 
	C89.788872,233.253082 105.685753,227.367676 121.145424,220.510056 
	C170.335831,198.690155 202.937775,161.296997 221.871246,111.454094 
	C226.465393,99.359894 230.743561,87.139847 234.865158,74.876213 
	C235.847260,71.954010 237.016998,70.295830 240.190735,70.283745 
	C246.513855,70.259666 253.370438,68.562386 259.014648,70.478477 
	C265.085052,72.539261 264.521362,80.620972 266.580536,86.078484 
	C276.108063,111.329613 286.743103,135.979095 302.671906,157.986542 
	C323.836609,187.228012 352.549438,206.488571 385.530487,219.823730 
	C399.209625,225.354568 413.232056,230.049164 427.175537,234.902374 
	C429.846985,235.832214 431.397614,236.809341 431.404541,239.873444 
	C431.416595,245.193390 431.605438,250.521408 431.966034,255.829330 
	C432.232544,259.751648 430.617584,261.534363 426.899017,262.959473 
	C410.792145,269.132263 394.614960,275.207672 378.881073,282.251495 
	C332.358765,303.078949 300.704468,338.185974 281.980499,385.237030 
	C276.038239,400.169281 270.653717,415.323456 264.436127,431.918243 
	C258.607056,431.918243 251.664276,431.830719 244.725372,431.957092 
	C241.509811,432.015656 240.089294,430.460327 239.090439,427.590576 
	C236.089951,418.969849 232.847870,410.433197 229.506744,401.529846 
M269.795715,232.089996 
	C256.855743,232.089996 243.915787,232.089996 230.611893,232.089996 
	C230.611893,239.074371 230.611893,245.512146 230.611893,252.509338 
	C223.684723,252.509338 217.115448,252.509338 210.430466,252.509338 
	C210.430466,272.984253 210.430466,292.888306 210.430466,312.994110 
	C217.208298,312.994110 223.751175,312.994110 230.735611,312.994110 
	C230.735611,306.251831 230.735611,299.835815 230.735611,293.268341 
	C244.411880,293.268341 257.641968,293.268341 271.280884,293.268341 
	C271.280884,299.919769 271.280884,306.341370 271.280884,312.982544 
	C278.227173,312.982544 284.761475,312.982544 291.494934,312.982544 
	C291.494934,292.765320 291.494934,272.876709 291.494934,252.387787 
	C284.691681,252.387787 278.134338,252.387787 271.613190,252.387787 
	C271.222229,245.053772 270.863220,238.319412 271.495453,232.008896 
	C284.906982,232.008896 298.318512,232.008896 311.772156,232.008896 
	C311.772156,218.383255 311.772156,205.158051 311.772156,191.866302 
	C298.248077,191.866302 284.993317,191.866302 271.201050,191.866302 
	C271.201050,199.179688 271.281067,206.291672 271.176666,213.400955 
	C271.087280,219.486786 270.786652,225.569504 269.795715,232.089996 
M230.690506,211.473236 
	C230.690506,205.029449 230.690506,198.585678 230.690506,191.962341 
	C216.876511,191.962341 203.542496,191.962341 190.232895,191.962341 
	C190.232895,205.480438 190.232895,218.688080 190.232895,231.760406 
	C203.860046,231.760406 217.194122,231.760406 230.686768,231.760406 
	C230.686768,225.084030 230.686768,218.772675 230.690506,211.473236 
z"/>
<path fill="#FBFBFB" opacity="1.000000" stroke="none" 
	d="
M444.039734,24.963116 
	C445.889160,21.102989 447.629974,17.606325 449.370789,14.109661 
	C449.901367,14.244763 450.431915,14.379867 450.962463,14.514969 
	C454.693573,30.560692 462.093872,44.072849 476.674164,52.389408 
	C471.397797,59.016006 465.352997,65.043991 461.263641,72.190849 
	C457.311279,79.098267 455.373596,87.158447 452.451447,94.978539 
	C447.926605,86.855637 444.719055,79.068604 439.715271,72.690887 
	C434.805084,66.432495 428.068604,61.606956 421.575134,55.639343 
	C432.481323,48.531796 438.650024,37.244511 444.039734,24.963116 
z"/>
<path fill="#FCFCFC" opacity="1.000000" stroke="none" 
	d="
M441.034546,187.063568 
	C440.502228,186.070190 439.858398,184.995178 440.152954,184.345673 
	C445.828308,171.829834 451.574402,159.345459 457.414612,146.905609 
	C458.394043,144.819366 459.879333,142.970627 461.885590,139.831131 
	C467.272430,154.998169 475.324493,166.538300 486.003906,174.398941 
	C479.140106,187.185120 472.603943,199.376419 466.020844,211.542343 
	C465.842255,211.872375 465.157562,211.928558 464.124634,212.351883 
	C458.821594,201.959106 450.571777,194.118393 441.034546,187.063568 
z"/>
<path fill="#FCFCFC" opacity="1.000000" stroke="none" 
	d="
M377.579590,90.833939 
	C378.877869,91.468300 380.447449,92.101425 380.736969,93.104172 
	C384.471405,106.037178 392.317841,115.291351 405.396332,120.859375 
	C404.194672,122.680046 403.224945,124.520935 401.914368,126.074196 
	C393.965637,135.494537 389.335175,146.285706 387.915802,158.538101 
	C387.734955,160.099121 386.364746,161.522385 385.545532,163.009460 
	C384.486908,161.966049 383.006744,161.113297 382.435120,159.849594 
	C376.996094,147.825684 370.082306,137.039703 358.464355,129.987335 
	C357.929932,129.662933 357.582458,129.030609 356.844238,128.200089 
	C358.830292,125.548866 361.166779,123.113625 362.702637,120.249107 
	C366.999023,112.235985 370.976501,104.051430 375.050049,95.919601 
	C375.853638,94.315437 376.524109,92.644585 377.579590,90.833939 
z"/>
<path fill="#040404" opacity="1.000000" stroke="none" 
	d="
M270.504211,231.585052 
	C270.863220,238.319412 271.222229,245.053772 271.613190,252.387787 
	C278.134338,252.387787 284.691681,252.387787 291.494934,252.387787 
	C291.494934,272.876709 291.494934,292.765320 291.494934,312.982544 
	C284.761475,312.982544 278.227173,312.982544 271.280884,312.982544 
	C271.280884,306.341370 271.280884,299.919769 271.280884,293.268341 
	C257.641968,293.268341 244.411880,293.268341 230.735611,293.268341 
	C230.735611,299.835815 230.735611,306.251831 230.735611,312.994110 
	C223.751175,312.994110 217.208298,312.994110 210.430466,312.994110 
	C210.430466,292.888306 210.430466,272.984253 210.430466,252.509338 
	C217.115448,252.509338 223.684723,252.509338 230.611893,252.509338 
	C230.611893,245.512146 230.611893,239.074371 230.611893,232.089996 
	C243.915787,232.089996 256.855743,232.089996 270.165405,231.858353 
	C270.535095,231.626709 270.504211,231.585052 270.504211,231.585052 
z"/>
<path fill="#020202" opacity="1.000000" stroke="none" 
	d="
M270.557251,231.640167 
	C270.786652,225.569504 271.087280,219.486786 271.176666,213.400955 
	C271.281067,206.291672 271.201050,199.179688 271.201050,191.866302 
	C284.993317,191.866302 298.248077,191.866302 311.772156,191.866302 
	C311.772156,205.158051 311.772156,218.383255 311.772156,232.008896 
	C298.318512,232.008896 284.906982,232.008896 270.999817,231.796967 
	C270.504211,231.585052 270.535095,231.626709 270.557251,231.640167 
z"/>
<path fill="#020202" opacity="1.000000" stroke="none" 
	d="
M230.688629,211.967285 
	C230.686768,218.772675 230.686768,225.084030 230.686768,231.760406 
	C217.194122,231.760406 203.860046,231.760406 190.232895,231.760406 
	C190.232895,218.688080 190.232895,205.480438 190.232895,191.962341 
	C203.542496,191.962341 216.876511,191.962341 230.690506,191.962341 
	C230.690506,198.585678 230.690506,205.029449 230.688629,211.967285 
z"/>
</svg>